<svg width="47" height="45" viewBox="0 0 47 45" fill="none" xmlns="http://www.w3.org/2000/svg">
<path d="M21.504 1.85411C22.1027 0.0114861 24.7096 0.0114799 25.3083 1.8541L29.3347 14.2462C29.6024 15.0702 30.3703 15.6282 31.2368 15.6282H44.2666C46.2041 15.6282 47.0096 18.1074 45.4422 19.2462L34.9008 26.9049C34.1999 27.4142 33.9066 28.317 34.1743 29.141L38.2007 41.5331C38.7994 43.3757 36.6905 44.908 35.1231 43.7692L24.5817 36.1104C23.8807 35.6011 22.9315 35.6011 22.2306 36.1104L11.6892 43.7692C10.1218 44.908 8.01284 43.3757 8.61154 41.5331L12.638 29.141C12.9057 28.317 12.6124 27.4142 11.9114 26.9049L1.3701 19.2462C-0.197331 18.1074 0.608215 15.6282 2.54566 15.6282L15.5755 15.6282C16.4419 15.6282 17.2098 15.0702 17.4776 14.2462L21.504 1.85411Z" fill="#FFE710"/>
</svg>
